<svg width="343.85" height="73.876" viewBox="0 0 343.873 73.881" class="css-1j8o68f"><g xmlns="http://www.w3.org/2000/svg" fill="#111">  <g xmlns="http://www.w3.org/2000/svg">
    <path d="M21.385 6.134 0 18.48v9.577L21.385 15.71l21.384 12.347V18.48" fill="#00000"/>
    <path d="M42.398 67.827L21.013 55.482v-9.576l21.385 12.346 21.384-12.346v9.576" fill="#f3f3f3"/>
  </g>
  <path d="m0 30.629 21.385-12.347 8.292 4.788L8.293 35.417v24.692L0 55.321" fill="#f3f3f3"/>
  <path d="M53.29 12.345L31.905 0l-8.293 4.788 21.384 12.345v24.693l8.294-4.788" fill="#f3f3f3"/>
  <path d="M10.566 61.534V36.842l8.294-4.788v24.693l21.383 12.345-8.293 4.79" fill="#000"/>
  <path d="M63.782 43.334V18.64l-8.293-4.788v24.692L34.105 50.892l8.293 4.789" fill="#000"/></g><path d="M100.422 24.348v3.709h-6.13V49.18h-4.145V28.057H84v-3.71h16.422zm13.252 25.165c-5.277 0-9.385-2.942-9.385-8.795v-16.37h4.178v15.796c0 3.952 2.282 5.642 5.207 5.642s5.243-1.707 5.243-5.642V24.348h4.162v16.37c0 5.85-4.11 8.795-9.405 8.795zm29.274-.332-6.443-11.074h-2.682v11.074h-4.162V24.348h8.62c5.382 0 7.75 3.222 7.75 7.21 0 3.464-2.054 5.799-5.346 6.39l7.158 11.233h-4.893zm-9.125-21.315v7.158h3.848c3.05 0 4.355-1.428 4.355-3.552 0-2.108-1.307-3.606-4.355-3.606h-3.848zm31.154 8.273c2.874.766 4.808 2.698 4.808 6.198 0 4.059-2.629 6.844-7.419 6.844h-9.943V24.348h7.784c4.91 0 7.784 2.63 7.784 6.687 0 2.282-1.028 4.144-3.014 5.102zm-4.753-8.273h-3.78v6.983h4.198c2.229 0 3.482-1.585 3.482-3.552 0-1.95-1.357-3.431-3.9-3.431zm1.393 17.694c2.821 0 4.128-1.725 4.128-3.674 0-2.038-1.34-3.745-4.285-3.745h-5.014v7.419h5.171zm24.206 3.953c-7.14 0-12.538-4.895-12.538-12.766 0-7.854 5.398-12.747 12.538-12.747 7.123 0 12.522 4.893 12.522 12.747 0 7.871-5.398 12.766-12.522 12.766zm0-3.866c4.703 0 8.378-3.258 8.378-8.899 0-5.59-3.673-8.864-8.378-8.864s-8.376 3.274-8.376 8.863c0 5.644 3.674 8.898 8.376 8.898zm26.331-1.031h7.783v4.553h-12.938V24.344h5.155v20.272zm28.33 4.553-1.804-5.12h-10.427l-1.807 5.12h-5.272l9.142-24.825h6.305l9.138 24.825h-5.274zm-10.72-9.431h7.405l-3.695-10.533zm36.68-15.394h5.137V49.17h-5.964l-10.995-17.747V49.17h-5.137V24.344h5.893l11.066 17.644V24.344zm22.557 25.168c-7.3 0-12.696-4.965-12.696-12.765S281.698 23.999 289 23.999c5.531 0 9.964 2.836 11.734 7.542l-4.811 1.752c-1.1-2.885-3.73-4.55-6.923-4.55-4.278 0-7.56 2.988-7.56 8.004s3.282 8.022 7.56 8.022c3.195 0 5.823-1.682 6.923-4.569l4.81 1.752c-1.769 4.708-6.202 7.56-11.735 7.56zm30.358-20.633h-9.21v5.635h8.161V39h-8.161v5.617h9.21v4.553H304.96V24.346h14.398v4.533zm18.415 20.29-6.46-10.925h-1.495v10.925h-5.155V24.344h9.004c5.617 0 7.989 3.316 7.989 7.422 0 3.332-1.89 5.498-5.257 6.22l7.474 11.183h-6.1zm-7.953-20.548v5.929h3.04c2.75 0 3.865-1.17 3.865-2.956 0-1.772-1.116-2.973-3.865-2.973h-3.04z" fill="#fff"/></svg>